<svg xmlns="http://www.w3.org/2000/svg" width="48" height="48"><g transform="translate(0 -1004.362)"><circle cx="24" cy="1028.362" r="24" fill="#ffa40b"/><path fill="#fff" style="line-height:125%;-inkscape-font-specification:Sans;text-indent:0;text-align:start;text-decoration-line:none;text-transform:none;block-progression:tb;marker:none" d="M21.844 1014.374c-.17.03-.235.093-.313.157-.078.063-.171.136-.25.218-.156.165-.3.362-.469.563-.167.2-.335.414-.468.562-.067.074-.146.118-.188.157-.012.01-.023.024-.031.03-.056 0-.152-.017-.25-.03-.196-.027-.431-.08-.687-.125-.257-.045-.525-.07-.75-.094-.113-.012-.212-.033-.313-.031a.62.62 0 0 0-.344.094.612.612 0 0 0-.25.25c-.051.086-.079.177-.125.28-.091.21-.191.473-.281.72-.09.246-.175.47-.25.656-.038.093-.067.168-.094.219-.008.015-.025.022-.03.03-.054.018-.154.04-.25.063-.195.043-.432.079-.688.125-.256.046-.53.101-.75.156-.11.027-.188.057-.282.094-.093.037-.203.056-.312.187-.11.132-.106.245-.125.344-.02.1-.024.199-.031.313a11.7 11.7 0 0 0-.032.75c0 .262.008.518 0 .718-.004.1-.023.194-.03.25-.008 0-.01.014-.032.031-.044.035-.104.103-.187.157-.168.107-.4.243-.625.375-.225.132-.437.247-.625.375-.094.064-.175.12-.25.187-.076.067-.161.12-.22.281a.59.59 0 0 0-.03.344c.015.1.062.203.093.313.063.219.13.472.22.718.087.247.189.497.25.688.03.095.05.194.062.25-.003.01.015.01 0 .03a3.64 3.64 0 0 1-.157.22c-.12.158-.27.33-.437.53-.167.203-.336.41-.469.595-.067.092-.14.192-.187.28a.625.625 0 0 0-.094.345c0 .17.045.224.094.312.048.088.12.19.187.281.133.185.302.392.469.594.166.202.316.404.437.563.06.079.126.139.157.187.009.014.025.02.03.031-.002.012-.027.014-.03.031a2.582 2.582 0 0 1-.063.219c-.06.19-.162.44-.25.687-.088.247-.156.5-.219.72-.031.109-.078.212-.093.312a.591.591 0 0 0 .03.343c.059.161.144.215.22.282.075.067.156.123.25.187.188.127.4.274.625.406.225.132.457.237.625.344.083.054.143.122.187.156.022.017.025.06.031.062.01.057.028.131.031.22.008.2 0 .455 0 .718.001.263.017.522.032.75.008.114.012.213.03.312.02.1.016.212.126.344.11.132.219.151.312.188.094.037.172.066.282.094.22.055.494.11.75.156s.494.082.687.125c.097.02.197.045.25.062h.031c.005.01-.007.019 0 .03.027.05.056.127.094.22.062.153.146.358.219.562l-2.094 3.75c-.179.339.19.811.563.719l2.25-.594.593 2.25c.099.398.763.464.938.094l2.031-3.687c.057.05.104.114.156.156.078.063.143.126.313.156s.248 0 .344-.03c.095-.034.18-.076.28-.126.204-.1.432-.244.657-.375.225-.13.45-.25.625-.344.088-.047.167-.072.219-.094.01.01.036-.01.062 0 .052.022.131.047.219.094.176.093.4.213.625.344.226.13.453.274.656.375.102.05.186.092.282.125.095.033.173.062.343.031a.532.532 0 0 0 .282-.125c.02-.016.041-.042.062-.062l2.031 3.563c.175.37.84.303.938-.094l.594-2.25 2.25.593c.372.092.74-.38.562-.718l-2.031-3.563c.009-.023.023-.039.031-.062.09-.246.175-.502.25-.687.038-.093.067-.169.094-.22-.005-.013.02-.02.03-.03a2.89 2.89 0 0 1 .25-.062c.195-.043.432-.08.688-.125.256-.046.53-.102.75-.156.11-.027.188-.057.282-.094.093-.037.203-.056.312-.188.11-.132.106-.245.125-.344.02-.099.024-.198.031-.312.016-.228.03-.487.032-.75 0-.263-.008-.518 0-.719.004-.088.022-.162.03-.219-.002 0-.001-.026 0-.03a.173.173 0 0 1 .032-.032c.044-.035.104-.102.187-.156.168-.107.4-.212.625-.344.225-.132.438-.278.625-.406.094-.064.175-.12.25-.187.076-.067.161-.121.22-.282.057-.16.014-.244 0-.343a2.432 2.432 0 0 0-.063-.313c-.063-.219-.162-.472-.25-.719-.089-.246-.159-.496-.22-.687a2.658 2.658 0 0 1-.062-.219c0-.01-.03.01-.03 0-.006.01-.007 0 0-.03.005-.013.021-.018.03-.032.03-.048.096-.108.157-.187.121-.16.27-.361.437-.563.167-.202.335-.41.469-.594a2.85 2.85 0 0 0 .187-.28c.049-.089.094-.143.094-.313a.623.623 0 0 0-.094-.344 2.91 2.91 0 0 0-.187-.281 12.331 12.331 0 0 0-.469-.594c-.167-.202-.316-.373-.437-.531a3.383 3.383 0 0 1-.157-.22c-.015-.023.003-.022 0-.03.012-.056.033-.155.063-.25.06-.191.13-.44.219-.688.088-.246.187-.5.25-.718.031-.11.047-.213.062-.313.015-.099.058-.183 0-.344-.058-.16-.143-.214-.219-.28a2.368 2.368 0 0 0-.25-.188c-.187-.128-.4-.243-.625-.375-.224-.132-.457-.268-.625-.375-.083-.054-.143-.122-.187-.157h-.031c-.018-.03-.007-.034 0-.03-.008-.058-.027-.15-.031-.25-.008-.201 0-.457 0-.72-.001-.262-.017-.522-.032-.75-.008-.113-.012-.213-.03-.312-.02-.099-.016-.212-.126-.344-.11-.131-.219-.15-.312-.187a2.005 2.005 0 0 0-.282-.094c-.22-.055-.494-.11-.75-.156s-.493-.082-.687-.125a2.889 2.889 0 0 1-.25-.062c-.006-.01-.024-.016-.031-.031-.027-.051-.056-.126-.094-.22-.075-.184-.16-.409-.25-.655-.09-.247-.19-.51-.281-.72-.046-.103-.074-.194-.125-.28a.612.612 0 0 0-.25-.25.611.611 0 0 0-.344-.094c-.1 0-.2.019-.313.03-.225.025-.493.05-.75.095-.256.045-.49.098-.687.125-.098.013-.194.029-.25.03-.006 0-.015.01-.031 0-.006-.01.008-.022 0-.03-.042-.038-.12-.082-.188-.157-.133-.148-.3-.361-.468-.562-.168-.2-.313-.398-.47-.563-.078-.082-.171-.155-.25-.218-.077-.063-.142-.126-.312-.157-.17-.03-.248 0-.343.031-.096.033-.18.075-.282.125-.203.101-.43.245-.656.375-.226.131-.45.251-.625.344-.088.047-.167.104-.219.125-.052.021-.103 0-.03 0 .07 0 .02.021-.032 0-.052-.02-.131-.078-.219-.125-.175-.093-.4-.213-.625-.344-.225-.13-.453-.274-.656-.375-.102-.05-.186-.092-.281-.125-.095-.033-.174-.062-.344-.03zm.125.782c.045.017.117.028.187.062.17.084.37.214.594.343.223.13.457.239.656.344.1.053.193.12.281.156a.71.71 0 0 0 .313.062.739.739 0 0 0 .312-.062c.09-.037.182-.103.282-.156.199-.105.433-.214.656-.344.223-.129.423-.26.594-.343.07-.035.142-.044.187-.062.036.032.074.04.125.094.132.138.303.332.469.53.166.2.349.427.5.595.076.084.148.153.219.218.07.065.112.106.25.157a.722.722 0 0 0 .312.062c.096 0 .201-.016.313-.031.222-.03.465-.081.718-.125.254-.044.5-.105.688-.125.07-.01.14 0 .187 0 .025.043.06.11.094.187.077.176.162.412.25.656.089.245.196.478.281.688.043.105.08.196.125.281.045.085.076.155.188.25s.19.127.281.156c.092.03.203.038.313.062.22.048.465.11.718.157.254.046.504.079.688.125.08.02.142.047.187.062.008.049.026.105.032.187.012.192-.001.459 0 .719 0 .26-.01.523 0 .75.004.113.018.217.03.312.014.095.022.186.095.313.072.127.143.16.218.219.076.059.155.126.25.187.19.122.434.244.657.375.222.13.436.268.593.375.08.053.12.093.157.125-.01.048-.04.108-.063.188a11.52 11.52 0 0 1-.219.656c-.087.244-.182.503-.25.719-.034.108-.042.218-.062.312-.02.094-.057.17-.031.313.025.143.073.2.125.28.05.083.118.161.187.25.137.18.304.395.469.595.165.2.325.376.437.53.056.079.102.146.125.188-.024.042-.075.088-.125.157a11.73 11.73 0 0 1-.437.562c-.165.2-.332.383-.469.563-.069.09-.136.168-.187.25a.802.802 0 0 0-.125.312c-.025.143.01.218.03.313.021.094.03.173.063.28.068.217.163.475.25.72.088.244.166.472.219.656.023.08.054.14.063.187-.036.032-.078.072-.157.125-.157.107-.371.245-.593.375-.223.131-.467.254-.657.375-.095.061-.174.129-.25.188-.075.059-.146.092-.218.219-.073.126-.081.217-.094.312a3.23 3.23 0 0 0-.031.313c-.01.226 0 .49 0 .75-.001.26.012.527 0 .718-.005.082-.024.14-.032.188-.045.016-.107.044-.187.062-.184.046-.434.079-.688.125-.253.046-.499.108-.718.156-.11.024-.221.033-.313.062a.718.718 0 0 0-.281.156c-.112.095-.143.165-.188.25a3.224 3.224 0 0 0-.125.282c-.085.21-.192.443-.28.687-.09.244-.174.512-.25.688-.034.076-.07.113-.095.156-.046 0-.116.01-.187 0-.188-.02-.434-.081-.688-.125-.253-.044-.496-.063-.718-.094a3.152 3.152 0 0 0-.313-.031c-.096 0-.174-.02-.312.03-.15.056-.205.116-.282.188a3.802 3.802 0 0 0-.25.25c-.167.189-.352.413-.53.625-.15.179-.293.352-.407.47-.036.035-.036.07-.063.093h-.03c-.046-.017-.114-.025-.188-.062-.17-.084-.37-.214-.594-.344-.223-.129-.457-.27-.656-.375-.1-.053-.193-.088-.281-.125-.09-.037-.166-.094-.313-.094s-.224.057-.312.094c-.09.037-.182.072-.282.125-.199.106-.433.246-.656.375-.223.13-.424.26-.594.344-.074.037-.142.045-.187.062a2.27 2.27 0 0 1-.125-.125 11.834 11.834 0 0 1-.469-.531c-.166-.199-.349-.426-.5-.594a3.152 3.152 0 0 0-.219-.219c-.07-.065-.112-.105-.25-.156-.138-.05-.216-.035-.312-.03-.096 0-.201.015-.313.03-.222.03-.465.05-.718.094-.254.044-.5.105-.688.125-.07.01-.14 0-.187 0-.024-.043-.061-.08-.094-.156-.077-.176-.162-.444-.25-.688-.089-.244-.196-.477-.281-.687a3.281 3.281 0 0 0-.125-.281c-.045-.085-.076-.156-.188-.25a.728.728 0 0 0-.281-.157c-.092-.03-.203-.037-.313-.062-.22-.048-.465-.11-.718-.156-.254-.046-.504-.079-.688-.125-.08-.02-.142-.046-.187-.062-.008-.049-.026-.105-.032-.187-.012-.192.001-.459 0-.72 0-.26.01-.522 0-.75a3.45 3.45 0 0 0-.03-.312c-.014-.096-.022-.185-.095-.312-.072-.127-.143-.16-.218-.219-.076-.059-.155-.127-.25-.187-.19-.122-.434-.245-.657-.375-.222-.131-.436-.268-.593-.375-.08-.053-.12-.093-.157-.125.01-.048.04-.108.063-.188.053-.184.131-.412.219-.656.087-.244.182-.503.25-.719.034-.108.042-.187.062-.281.02-.094.056-.17.031-.313a.803.803 0 0 0-.125-.312c-.05-.082-.119-.16-.187-.25-.137-.18-.304-.363-.469-.563-.165-.2-.325-.407-.437-.562a2.031 2.031 0 0 1-.125-.188c.024-.043.075-.088.125-.156.112-.155.272-.331.437-.531.165-.2.332-.414.469-.594.069-.09.136-.168.187-.25.051-.082.1-.138.125-.281.025-.143-.01-.218-.03-.313-.021-.094-.03-.204-.063-.312-.068-.216-.163-.475-.25-.719a11.495 11.495 0 0 1-.219-.656c-.023-.08-.054-.14-.063-.188.036-.032.078-.072.157-.125.157-.106.37-.244.593-.375.223-.13.467-.253.657-.375.095-.06.174-.128.25-.187.076-.06.146-.092.218-.219.073-.127.081-.217.094-.312.013-.095.027-.2.031-.313.01-.226 0-.49 0-.75.001-.26-.012-.527 0-.719.005-.083.024-.138.032-.187.045-.016.107-.043.187-.062.184-.046.434-.08.688-.125.253-.046.499-.108.718-.156.11-.024.221-.034.313-.062a.732.732 0 0 0 .281-.157c.112-.095.143-.164.188-.25.044-.086.082-.176.125-.28.085-.21.192-.444.28-.688.09-.244.174-.481.25-.657.035-.077.07-.144.095-.187.046 0 .116-.01.187 0 .188.02.434.08.688.125.253.044.496.095.718.125.112.015.217.028.313.03a.844.844 0 0 0 .312-.061c.138-.051.18-.091.25-.156.071-.065.143-.135.219-.22.151-.167.334-.394.5-.593.166-.198.337-.393.469-.531.051-.054.09-.062.125-.094zm1.968 2.593c-2.362 0-4.704.955-6.375 2.625-1.67 1.671-2.625 4.013-2.625 6.375 0 2.363.955 4.674 2.625 6.344 1.671 1.67 4.013 2.656 6.375 2.656 2.363 0 4.705-.985 6.375-2.656a9.028 9.028 0 0 0 2.625-6.344c0-2.362-.954-4.704-2.625-6.375-1.67-1.67-4.012-2.625-6.375-2.625zm0 1c2.089 0 4.18.868 5.657 2.344a8.118 8.118 0 0 1 2.343 5.656c0 2.089-.867 4.18-2.343 5.657a8.118 8.118 0 0 1-5.657 2.343 8.118 8.118 0 0 1-5.656-2.343 8.118 8.118 0 0 1-2.344-5.657c0-2.088.868-4.18 2.344-5.656a8.118 8.118 0 0 1 5.656-2.344zm-.03 3.22c-.301 0-.432.14-.532.25-.1.107-.172.245-.25.374-.156.259-.29.56-.437.875-.149.316-.318.634-.438.875-.06.12-.085.216-.125.281-.02.033-.052.054-.062.062-.075.02-.211.01-.344.031-.267.043-.592.11-.938.157s-.675.084-.968.156a2.396 2.396 0 0 0-.438.156c-.133.063-.315.12-.406.406-.091.286.021.466.093.594.073.129.151.23.25.344.199.228.464.45.72.687.254.238.494.5.687.688.096.094.2.16.25.219 0 .012.003.024 0 .062-.005.077-.01.179-.031.312-.042.266-.126.626-.188.969-.062.343-.103.699-.125 1-.011.15-.019.291 0 .437.019.146.037.325.281.5.245.175.45.123.594.094.145-.029.267-.066.406-.125.279-.117.57-.269.875-.437.306-.169.605-.375.844-.5.12-.062.242-.095.313-.125.016.01.04-.01.062 0 .071.029.192.095.313.156.24.122.535.273.843.438.308.164.596.323.875.437.14.057.261.098.407.125.145.027.351.083.593-.094.242-.178.264-.385.282-.531a2.125 2.125 0 0 0 0-.438c-.027-.3-.09-.626-.157-.968-.066-.343-.142-.704-.187-.97-.023-.132-.025-.235-.031-.312v-.03c.008-.013.018-.018.03-.032.05-.059.124-.123.22-.218.19-.191.435-.447.687-.688.252-.241.492-.488.688-.719.097-.115.179-.214.25-.343.07-.13.188-.31.093-.594-.094-.285-.303-.345-.437-.406-.134-.062-.26-.123-.407-.157a10.453 10.453 0 0 0-1-.156c-.346-.043-.67-.054-.937-.094a3.516 3.516 0 0 1-.313-.062c-.008-.01-.051.014-.062 0-.02-.015.006-.027 0-.03-.04-.066-.095-.194-.156-.313-.123-.24-.254-.53-.407-.844a10.57 10.57 0 0 0-.5-.906c-.079-.129-.117-.237-.218-.344a.716.716 0 0 0-.563-.25zm0 1.28c.106.187.251.403.374.657.148.304.27.607.407.875.068.133.15.267.218.375.068.108.118.195.282.312.163.117.25.127.375.156.124.03.288.04.437.062.298.044.632.083.969.125.286.036.537.052.75.094-.146.162-.323.363-.531.563-.245.234-.507.475-.72.687-.105.107-.199.184-.28.282-.082.098-.158.183-.22.375-.06.19-.04.279-.03.406.01.127.037.29.062.437.05.296.123.637.188.97.054.282.1.534.125.75-.2-.089-.43-.207-.688-.345-.299-.16-.607-.333-.875-.468-.134-.068-.257-.14-.375-.188a1.021 1.021 0 0 0-.437-.094c-.201 0-.258.045-.375.094-.118.05-.242.118-.375.188-.267.139-.579.336-.875.5-.247.136-.462.222-.657.312.023-.215.043-.467.094-.75.06-.333.141-.672.188-.969.023-.148.022-.279.03-.406.01-.127.033-.216-.03-.406a.976.976 0 0 0-.22-.375c-.082-.097-.173-.176-.28-.281-.215-.21-.472-.425-.72-.657-.207-.193-.384-.404-.53-.562.21-.044.471-.087.75-.125.335-.046.671-.078.968-.125.149-.024.283-.063.407-.094.123-.031.213-.037.375-.156.161-.12.183-.204.25-.313.066-.109.151-.24.218-.375.134-.269.263-.568.407-.875.12-.257.238-.468.343-.656zm-6.344 14.157a.56.56 0 0 0 .218.218c.149.087.244.061.344.062.1 0 .2-.019.313-.03.225-.025.493-.05.75-.095.256-.045.49-.098.687-.125.098-.013.194-.029.25-.03.003.01.01.01.031.03.042.038.12.082.188.157.093.103.197.265.312.406l-1.594 2.906-.406-1.531a.52.52 0 0 0-.625-.344l-1.594.406zm10.28 0c-.066.025-.024 0 .032 0s.152.018.25.03c.196.028.431.08.687.126.257.045.525.069.75.094.113.012.212.033.313.03.1 0 .195.025.344-.061.049-.03.062-.062.093-.094l1.094 1.906-1.562-.406a.52.52 0 0 0-.625.343l-.407 1.563-1.562-2.813c.135-.163.258-.337.375-.468.076-.085.139-.173.187-.22.05-.045.105-.057.032-.03z" color="#000" font-family="sans-serif" font-weight="400" letter-spacing="0" overflow="visible" word-spacing="0"/></g></svg>